<svg width="20" height="20" fill="white" viewBox="0 0 35 31" xmlns="http://www.w3.org/2000/svg">
<path d="M27.689 0.891235C26.0307 0.891235 24.4052 1.46299 23.1121 2.50117C22.6705 2.85575 22.6 3.50106 22.9544 3.94266C23.309 4.38419 23.9544 4.45488 24.396 4.1003C25.3264 3.35333 26.4959 2.94202 27.689 2.94202C30.5895 2.94202 32.9492 5.30171 32.9492 8.2022C32.9492 11.1027 30.5894 13.4624 27.689 13.4624H8.40808C7.84179 13.4624 7.38269 13.9215 7.38269 14.4878C7.38269 15.0541 7.84179 15.5132 8.40808 15.5132H27.689C31.7203 15.5132 35 12.2335 35 8.2022C35 4.17091 31.7202 0.891235 27.689 0.891235V0.891235Z"/>
<path d="M6.44373 11.4185H17.3974C17.9638 11.4185 18.4228 10.9594 18.4228 10.3931C18.4228 9.82684 17.9638 9.36774 17.3974 9.36774H6.44373C5.87744 9.36774 5.41833 9.82684 5.41833 10.3931C5.41833 10.9594 5.87744 11.4185 6.44373 11.4185V11.4185Z"/>
<path d="M17.11 17.5709H1.02539C0.459102 17.5709 0 18.03 0 18.5963C0 19.1626 0.459102 19.6217 1.02539 19.6217H17.11C19.4359 19.6217 21.3283 21.514 21.3283 23.8399C21.3283 26.1658 19.4359 28.0581 17.11 28.0581C16.1532 28.0581 15.2154 27.7282 14.4693 27.1292C14.0278 26.7747 13.3824 26.8452 13.0278 27.2868C12.6732 27.7284 12.7438 28.3738 13.1854 28.7283C14.2943 29.6185 15.6881 30.1088 17.11 30.1088C20.5667 30.1088 23.379 27.2965 23.379 23.8398C23.379 20.3831 20.5667 17.5709 17.11 17.5709V17.5709Z"/>
<path d="M1.02539 11.4185H2.40864C2.97493 11.4185 3.43403 10.9594 3.43403 10.3931C3.43403 9.82684 2.97493 9.36774 2.40864 9.36774H1.02539C0.459102 9.36774 0 9.82684 0 10.3931C0 10.9594 0.459102 11.4185 1.02539 11.4185Z"/>
<path d="M13.3984 22.6778C13.3984 22.1115 12.9393 21.6524 12.373 21.6524H6.2207C5.65441 21.6524 5.19531 22.1115 5.19531 22.6778C5.19531 23.2441 5.65441 23.7032 6.2207 23.7032H12.373C12.9394 23.7032 13.3984 23.2441 13.3984 22.6778Z"/>
</svg>